# xmcd
#
# Track frame offsets: 
#        150
#        21300
#        36792
#        58389
#        74171
#        90307
#        108555
#        129770
#        144919
#        164574
#        185495
#        201876
#        221662
#        247136
#        263566
#        283803
#        314367
#
# Disc length: 4315 seconds
#
# Revision: 0
# Processed by: cddbd v1.5.2PL0 Copyright (c) Steve Scherf et al.
# Submitted via: ExactAudioCopy v1.3
#
DISCID=0a10d911
DTITLE=Renee Geyer - The Ultimate Collection
DYEAR=2010
DGENRE=Soul, Blues
TTITLE0=Why Can't We Live Together
TTITLE1=It's A Man's Man's World
TTITLE2=Best Times
TTITLE3=Stares and Whispers
TTITLE4=Say I Love You
TTITLE5=Heading In The Right Direction
TTITLE6=It Only Happens (Duet With Doug Williams)(Live)
TTITLE7=Sweet Love
TTITLE8=If Loving You Is Wrong (I Dont Want To Be Right)
TTITLE9=Shakey Ground
TTITLE10=Baby I've Been Missing You
TTITLE11=Thieves In The Temple
TTITLE12=Midnight Train To Georgia
TTITLE13=Steal Away
TTITLE14=Difficult Woman
TTITLE15=Love Don't Live Here Anymore
TTITLE16=God Only Knows
EXTD=
EXTT0=
EXTT1=
EXTT2=
EXTT3=
EXTT4=
EXTT5=
EXTT6=
EXTT7=
EXTT8=
EXTT9=
EXTT10=
EXTT11=
EXTT12=
EXTT13=
EXTT14=
EXTT15=
EXTT16=
PLAYORDER=
